HIERARCHY
ROOT Hips
{
  OFFSET 0 0 0
  CHANNELS 6 Xposition Yposition Zposition Zrotation Yrotation Xrotation
  JOINT LeftThigh
  {
    OFFSET 8.409438 0 -5.917753
    CHANNELS 3 Zrotation Yrotation Xrotation
    JOINT LeftLeg
    {
      OFFSET 0 0 -42.358652
      CHANNELS 3 Zrotation Yrotation Xrotation
      JOINT LeftFoot
      {
        OFFSET 0 0 -39.357303
        CHANNELS 3 Zrotation Yrotation Xrotation
      }
    }
  }
  JOINT RightThigh
  {
    OFFSET -8.409438 0 -5.917753
    CHANNELS 3 Zrotation Yrotation Xrotation
    JOINT RightLeg
    {
      OFFSET 0 0 -42.358652
      CHANNELS 3 Zrotation Yrotation Xrotation
      JOINT RightFoot
      {
        OFFSET 0 0 -39.357303
        CHANNELS 3 Zrotation Yrotation Xrotation
      }
    }
  }
  JOINT SpineLow
  {
    OFFSET 0 0 4.719101
    CHANNELS 3 Zrotation Yrotation Xrotation
    JOINT SpineMid
    {
      OFFSET 0 0 12.899191
      CHANNELS 3 Zrotation Yrotation Xrotation
      JOINT Chest
      {
        OFFSET 0 0 12.899191
        CHANNELS 3 Zrotation Yrotation Xrotation
        JOINT LeftShoulder
        {
          OFFSET 7.550562 1.41573 9.438202
          CHANNELS 3 Zrotation Yrotation Xrotation
          JOINT LeftArm
          {
            OFFSET 9.155056 0 4.247191
            CHANNELS 3 Zrotation Yrotation Xrotation
            JOINT LeftForearm
            {
              OFFSET 0 0 25.771955
              CHANNELS 3 Zrotation Yrotation Xrotation
              JOINT LeftHand
              {
                OFFSET 0 0 25.197169
                CHANNELS 3 Zrotation Yrotation Xrotation
              }
            }
          }
        }
        JOINT RightShoulder
        {
          OFFSET -7.550562 1.41573 9.438202
          CHANNELS 3 Zrotation Yrotation Xrotation
          JOINT RightArm
          {
            OFFSET -9.155056 0 4.247191
            CHANNELS 3 Zrotation Yrotation Xrotation
            JOINT RightForearm
            {
              OFFSET 0 0 -25.771955
              CHANNELS 3 Zrotation Yrotation Xrotation
              JOINT RightHand
              {
                OFFSET 0 0 -25.197169
                CHANNELS 3 Zrotation Yrotation Xrotation
              }
            }
          }
        }
        JOINT Neck
        {
          OFFSET 0 0 15.101124
          CHANNELS 3 Zrotation Yrotation Xrotation
          JOINT Head
          {
            OFFSET 0 0 11.325843
            CHANNELS 3 Zrotation Yrotation Xrotation
            End Site
            {
              OFFSET 0 0 14.157303
            }
          }
        }
      }
    }
  }
}
MOTION
Frames: 6
Frame Time: 0.0
0.0  89.887642  0.0  3.752794  -24.274066  -99.13736  7.802792  -12.557385  3.996879  3.784825  4.270881  23.618098  0.440495  0.956822  -0.47403  -9.532885  10.525677  -1.658571  -11.275052  5.774272  6.743882  5.807028  0.722328  0.066635  1.037049  -0.581579  0.758306  2.816631  -1.62169  2.047754  2.816631  -1.62169  2.047754  -4.683161  16.567837  3.353108  143.895385  44.384919  -158.519709  -4.698531  -0.482964  27.649832  84.818434  -9.383232  10.222757  -5.640995  -2.35213  17.831726  93.706334  35.772109  37.10554  2.619222  8.194502  -22.088506  90.739622  4.854564  -11.031499  15.386844  0.500915  5.398536  11.536714  0.512091  4.039302  
0.0  89.887642  0.0  3.775349  -24.236367  -99.269761  7.72667  -12.703231  3.826537  3.562608  4.563008  24.017442  0.582484  0.996852  -0.360029  -10.018924  10.619265  -1.973339  -11.24974  5.859952  7.203908  6.180299  0.767489  0.093475  1.010192  -0.556495  0.783361  2.743363  -1.553356  2.117921  2.743363  -1.553356  2.117921  -4.814138  16.409274  3.440399  143.964193  44.409053  -158.25429  -4.891768  -0.589399  27.314377  84.944635  -9.358721  10.143496  -5.651027  -2.314243  17.857225  93.214548  35.969844  36.675333  2.661765  8.261143  -22.884952  90.649845  4.67799  -10.680214  15.502984  0.382372  5.342399  11.624916  0.422716  4.000139  
0.0  89.887642  0.0  3.797703  -24.22826  -99.359061  7.793257  -12.839886  3.596415  3.458276  4.865346  24.555009  0.542566  0.935418  -0.361226  -10.365264  10.68374  -2.276857  -11.205099  5.974208  7.762654  6.434438  0.797839  0.040132  0.985869  -0.528072  0.805313  2.677254  -1.475801  2.17963  2.677254  -1.475801  2.17963  -4.760469  16.296156  3.595846  144.110576  44.423733  -158.114686  -4.922069  -0.644568  27.144837  85.202677  -9.445178  10.065091  -5.607535  -2.25543  17.879364  92.673083  36.157352  36.216885  2.553185  8.22575  -24.001576  90.432449  4.443813  -10.230907  15.614255  0.278948  5.2733  11.709304  0.344292  3.9509  
0.0  89.887642  0.0  3.868993  -24.190494  -99.389188  7.90201  -12.960947  3.285824  3.449942  5.227531  25.189295  0.410248  0.810343  -0.428304  -11.018261  10.799307  -2.816926  -11.433277  6.123643  8.36824  7.102508  0.872277  -0.021008  0.972818  -0.494799  0.824521  2.642232  -1.385215  2.233724  2.642232  -1.385215  2.233724  -4.798057  16.193735  3.701917  143.934389  44.52262  -157.968903  -4.87308  -0.726633  26.979463  85.330451  -9.317822  9.877399  -5.680912  -2.194956  17.801219  92.040085  36.296057  35.685733  2.370589  8.026547  -25.441162  89.991462  4.081553  -9.713587  15.684893  0.172186  5.193416  11.763215  0.26271  3.893685  
0.0  89.887642  0.0  3.955987  -24.193534  -99.39074  8.029533  -13.063645  2.899769  3.404136  5.576305  25.779313  0.375588  0.729865  -0.407416  -11.460885  10.911566  -3.348176  -11.491337  6.368436  9.142994  7.641195  0.905656  -0.163015  0.959572  -0.452508  0.830537  2.607293  -1.269444  2.25208  2.607293  -1.269444  2.25208  -4.831214  16.066901  3.8537  143.926383  44.613675  -157.905015  -4.790696  -0.738612  26.768813  85.69234  -9.382911  9.784139  -5.644025  -2.168477  17.772753  91.488743  36.340963  35.162984  1.903763  7.516923  -27.192105  89.301802  3.660971  -9.204125  15.7651  0.075497  5.133719  11.824187  0.189273  3.851383  
0.0  89.887642  0.0  4.073022  -24.012346  -99.221924  8.063279  -13.092356  2.33941  3.558254  5.891336  26.494621  0.213746  0.611135  -0.462635  -12.297842  11.031179  -4.263269  -12.667833  6.553211  9.800798  9.136756  1.138034  -0.123458  0.924255  -0.397415  0.809235  2.512956  -1.116895  2.196596  2.512956  -1.116895  2.196597  -4.911438  15.945124  3.960511  143.695445  44.79706  -157.888642  -4.640706  -0.716664  26.47316  86.086954  -9.661601  9.769075  -5.626357  -2.168841  17.665163  91.063111  36.265743  34.606076  1.286699  6.689979  -29.215598  88.435598  3.269289  -8.758053  15.857992  -0.05826  5.078346  11.894957  0.088212  3.813321  
